<svg xmlns="http://www.w3.org/2000/svg" width="178.068" height="245.84" viewBox="0 0 178.068 245.84"><defs><style>.a{fill:#707070;}.b,.d{fill:none;}.b{stroke:#707070;stroke-width:12px;}.c{stroke:none;}</style></defs><path class="a" d="M159.607,0A89.135,89.135,0,0,0,70.573,89.033c0,60.926,79.677,150.369,83.069,154.147a8.02,8.02,0,0,0,11.93,0c3.392-3.778,83.069-93.221,83.069-154.147A89.136,89.136,0,0,0,159.607,0Zm0,225.543c-26.815-31.853-73-94.695-73-136.509a73,73,0,1,1,146,0C232.607,130.85,186.429,193.681,159.607,225.543Z" transform="translate(-70.573)"/><g class="b" transform="translate(39 39)"><circle class="c" cx="49.895" cy="49.895" r="49.895"/><circle class="d" cx="49.895" cy="49.895" r="43.895"/></g></svg>
