<svg xmlns="http://www.w3.org/2000/svg" width="150" height="150" viewBox="0 0 150 150"><defs><style>.a{fill:#b2b2b2;}.b{fill:#fff;}</style></defs><g transform="translate(-1531 -128)"><g transform="translate(1531 128)"><circle class="a" cx="75" cy="75" r="75"/></g><g transform="translate(1568.129 147.307)"><path class="b" d="M40.961,0C60.448,0,79.632,8.974,79.632,30.441c0,19.8-22.684,27.408-27.556,34.561-3.657,5.321-2.436,12.8-12.484,12.8-6.546,0-9.743-5.324-9.743-10.2,0-18.129,26.636-22.231,26.636-37.159,0-8.216-5.468-13.088-14.608-13.088-19.487,0-11.877,20.09-26.636,20.09-5.328,0-9.9-3.2-9.9-9.283C5.336,13.232,22.384,0,40.961,0ZM40.2,87.682A12.488,12.488,0,1,1,27.715,100.17,12.544,12.544,0,0,1,40.2,87.682Z" transform="translate(-5.34)"/></g></g></svg>